# xmcd
#
# Track frame offsets:
#	150
#	13423
#	25873
#	39350
#	49863
#	64978
#	75730
#	91200
#	104373
#	117823
#	132820
#	148110
#	165345
#	176643
#	187095
#	202113
#	212693
#	224233
#	234370
#	248493
#	262645
#	277458
#	289003
#	299923
#	311613
#	327643
#
# Disc length: 4509 seconds
#
# Revision: 1175423195
# Processed by: cddbd v1.5.2PL0 Copyright (c) Steve Scherf et al.
# Submitted via: EZCDAudioConverter 9.1.1.1
#
DISCID=98119b1a
DTITLE=Kenny Rogers - Ruby Don't Take Your Love To Town
DYEAR=2000
DGENRE=Country
TTITLE0=Ruby Don't Take Your Love To Town
TTITLE1=Ruben James
TTITLE2=Shine On Ruby Mountain
TTITLE3=Ticket To Nowhere
TTITLE4=Conditions (Just Dropped In)
TTITLE5=She Even Woke Me Up To Say Goodbye
TTITLE6=My Washington Woman
TTITLE7=Run Thru Your Mind
TTITLE8=Sleep Comes Easy
TTITLE9=After All (I Live My Life)
TTITLE10=For The Good Times
TTITLE11=Something's Burning
TTITLE12=Hurry Up Love
TTITLE13=Trying Just As Hard
TTITLE14=Heed The Call
TTITLE15=We All Got To Help Each Other
TTITLE16=Poem For My Little Lady
TTITLE17=Where Does Rosie Go
TTITLE18=Sunshine
TTITLE19=Loser
TTITLE20=Church Without A Name
TTITLE21=Me And Bobby Mcgee
TTITLE22=Always Leaving Always Gone
TTITLE23=Calico Silver
TTITLE24=The Way It Used To Be
TTITLE25=Goodtime Liberator
EXTD=
EXTT0=
EXTT1=
EXTT2=
EXTT3=
EXTT4=
EXTT5=
EXTT6=
EXTT7=
EXTT8=
EXTT9=
EXTT10=
EXTT11=
EXTT12=
EXTT13=
EXTT14=
EXTT15=
EXTT16=
EXTT17=
EXTT18=
EXTT19=
EXTT20=
EXTT21=
EXTT22=
EXTT23=
EXTT24=
EXTT25=
PLAYORDER=
